<svg viewBox="0 0 640 400" data-background-color="#ffffff" preserveAspectRatio="xMidYMid meet" height="400" width="640" xmlns="http://www.w3.org/2000/svg" xmlns:xlink="http://www.w3.org/1999/xlink"><rect width="640" height="400" x="0" y="0" opacity="1" fill="#ffffff" data-fill-palette-color="background" id="background"></rect><g id="tight-bounds" transform="matrix(1,0,0,1,122.24000000000001,147.5890789450587)"><svg viewBox="0 0 395.52 104.82184210988258" height="104.82184210988258" width="395.52"><g><svg viewBox="0 0 527.6004482878827 139.82618043976464" height="104.82184210988258" width="395.52"><g transform="matrix(1,0,0,1,0,19.324747079591212)"><svg viewBox="0 0 395.52 101.17668628058222" height="101.17668628058222" width="395.52"><g><svg viewBox="0 0 395.52 101.17668628058222" height="101.17668628058222" width="395.52"><g><svg viewBox="0 0 395.52 101.17668628058222" height="101.17668628058222" width="395.52"><g transform="matrix(1,0,0,1,0,0)"><svg width="395.52" viewBox="2.9800000190734863 -38.720001220703125 157.66000366210938 40.33000183105469" height="101.17668628058222" data-palette-color="#2257bf"><path d="M40.23-8.59L40.23-8.59Q40.23-6.25 39.11-4.81 37.99-3.37 35.94-2.49L35.94-2.49Q34.23-1.76 31.64-1.34 29.05-0.93 26.27-0.76 23.49-0.59 20.8-0.54 18.12-0.49 16.31-0.49L16.31-0.49Q13.23-0.49 10.23-0.59 7.23-0.68 4.15-0.88L4.15-0.88Q4.3-5.86 3.86-10.74L3.86-10.74Q7.52-10.64 11.16-10.57 14.79-10.5 18.46-10.4L18.46-10.4Q19.87-10.35 21.31-10.3 22.75-10.25 24.22-10.25L24.22-10.25Q24.46-10.25 24.95-10.25 25.44-10.25 25.98-10.3 26.51-10.35 26.98-10.45 27.44-10.55 27.69-10.74L27.69-10.74Q27.88-10.94 27.93-11.3 27.98-11.67 27.98-11.96L27.98-11.96Q27.98-12.5 27.83-13.26 27.69-14.01 27.39-14.5L27.39-14.5Q27.34-14.55 27.08-14.6 26.81-14.65 26.46-14.67 26.12-14.7 25.83-14.72 25.54-14.75 25.49-14.75L25.49-14.75Q22.36-14.99 19.26-15.09 16.16-15.19 13.04-15.43L13.04-15.43Q11.62-15.58 10.13-15.72 8.64-15.87 7.37-16.26L7.37-16.26Q6.15-16.6 5.3-17.8 4.44-18.99 3.93-20.53 3.42-22.07 3.2-23.63 2.98-25.2 2.98-26.27L2.98-26.27Q2.98-28.03 3.32-29.61 3.66-31.2 4.42-32.57 5.18-33.94 6.35-34.99 7.52-36.04 9.23-36.72L9.23-36.72Q12.16-37.84 15.5-38.28 18.85-38.72 21.92-38.72L21.92-38.72Q25.54-38.72 29.05-38.28 32.57-37.84 36.08-37.16L36.08-37.16Q36.04-35.74 36.01-34.35 35.99-32.96 35.99-31.54L35.99-31.54Q35.99-30.13 36.13-28.69 36.28-27.25 36.43-25.83L36.43-25.83Q31.79-25.73 27.17-25.66 22.56-25.59 17.87-25.39L17.87-25.39Q17.29-25.39 16.28-25.34 15.28-25.29 14.36-25.22 13.43-25.15 12.74-25.1 12.06-25.05 12.06-25.05L12.06-25.05Q11.82-24.51 11.77-23.95 11.72-23.39 11.72-22.8L11.72-22.8Q11.72-22.51 11.74-22.07 11.77-21.63 11.96-21.39L11.96-21.39Q12.01-21.34 12.79-21.24 13.57-21.14 14.53-21.04 15.48-20.95 16.33-20.85 17.19-20.75 17.38-20.75L17.38-20.75Q18.99-20.61 21.17-20.41 23.34-20.21 25.61-19.97 27.88-19.73 29.98-19.36 32.08-18.99 33.64-18.51L33.64-18.51Q35.06-18.02 36.25-16.97 37.45-15.92 38.33-14.53 39.21-13.13 39.72-11.6 40.23-10.06 40.23-8.59ZM82.66-0.24L82.66-0.24Q80.32 0.29 78 0.76 75.68 1.22 73.29 1.61L73.29 1.61Q70.36-2.83 67.5-7.15 64.65-11.47 61.57-15.77L61.57-15.77 56.35-10.69 55.86 0.15Q54.73 0.1 53.64 0.07 52.54 0.05 51.46 0.05L51.46 0.05Q50.44 0.05 49.46 0.1 48.48 0.15 47.51 0.29L47.51 0.29Q46.92-4.2 46.41-8.67 45.9-13.13 45.51-17.68L45.51-17.68Q45.11-22.22 44.89-26.73 44.68-31.25 44.48-35.79L44.48-35.79Q48.14-35.69 51.73-35.67 55.32-35.64 58.98-35.55L58.98-35.55 58.69-24.22Q61.33-26.95 63.67-29.79 66.01-32.62 68.5-35.55L68.5-35.55Q70.85-35.69 73.24-35.86 75.63-36.04 77.98-36.23L77.98-36.23 77.78-32.62 67.43-21.83Q71.14-16.31 74.92-10.99 78.71-5.66 82.66-0.24ZM120.11-16.11L120.11-16.11Q120.11-13.33 119.99-10.6 119.87-7.86 119.48-5.08L119.48-5.08Q118.7-4.49 117.91-3.98 117.13-3.47 116.3-2.88L116.3-2.88Q115.62-2.44 114.81-1.88 114.01-1.32 113.13-0.78 112.25-0.24 111.35 0.17 110.44 0.59 109.66 0.73L109.66 0.73Q108.93 0.93 107.71 0.9 106.49 0.88 105.66 0.88L105.66 0.88Q103.61 0.98 101.56 1.03 99.51 1.07 97.36 1.07L97.36 1.07Q96.38 1.07 95.11 1.1 93.84 1.12 92.82 0.88L92.82 0.88Q92.52 0.83 91.84 0.42 91.16 0 90.3-0.61 89.45-1.22 88.52-1.93 87.59-2.64 86.74-3.3 85.88-3.96 85.27-4.47 84.66-4.98 84.42-5.18L84.42-5.18Q84.17-7.76 84.05-10.33 83.93-12.89 83.93-15.48L83.93-15.48Q83.93-20.51 84.3-25.44 84.66-30.37 85.1-35.35L85.1-35.35 95.16-35.6Q94.67-32.47 94.48-28.98 94.28-25.49 94.28-22.27L94.28-22.27Q94.28-21.73 94.33-20.39 94.38-19.04 94.53-17.53 94.67-16.02 94.89-14.75 95.11-13.48 95.45-13.09L95.45-13.09Q95.6-12.94 96.21-12.82 96.82-12.7 97.68-12.6 98.53-12.5 99.51-12.45 100.48-12.4 101.36-12.38 102.24-12.35 102.92-12.33 103.61-12.3 103.9-12.3L103.9-12.3Q104.15-12.3 104.73-12.3 105.32-12.3 105.93-12.33 106.54-12.35 107.08-12.4 107.61-12.45 107.81-12.6L107.81-12.6Q108.39-12.99 108.69-14.5 108.98-16.02 109.13-17.82 109.27-19.63 109.27-21.29 109.27-22.95 109.27-23.68L109.27-23.68Q109.27-24.8 109.3-25.93 109.32-27.05 109.32-28.17L109.32-28.17Q109.32-30.47 109.27-32.69 109.22-34.91 109.13-37.21L109.13-37.21Q110.15-37.11 111.15-37.08 112.15-37.06 113.18-37.06L113.18-37.06Q114.4-37.06 115.6-37.11 116.79-37.16 117.96-37.4L117.96-37.4Q118.99-32.18 119.55-26.83 120.11-21.48 120.11-16.11ZM160.64-12.16L160.64-12.16Q160.64-10.4 160.1-8.47 159.56-6.54 158.54-4.86 157.51-3.17 156.02-1.93 154.53-0.68 152.68-0.29L152.68-0.29Q151.95-0.15 150.94-0.05 149.94 0.05 148.87 0.1 147.8 0.15 146.75 0.2 145.7 0.24 144.96 0.24L144.96 0.24Q140.76 0.44 136.56 0.46 132.37 0.49 128.12 0.49L128.12 0.49Q127.92-1.51 127.75-3.47 127.58-5.42 127.29-7.47L127.29-7.47Q130.66-7.62 134-7.79 137.35-7.96 140.72-8.2L140.72-8.2Q141.45-8.25 142.35-8.25 143.25-8.25 144.21-8.3 145.16-8.35 146.06-8.42 146.97-8.5 147.65-8.64L147.65-8.64Q147.94-8.69 148.36-8.81 148.77-8.94 149.11-9.16 149.46-9.38 149.7-9.67 149.94-9.96 149.94-10.4L149.94-10.4Q149.94-11.43 149.72-12.67 149.5-13.92 149.41-14.89L149.41-14.89Q145.74-14.55 142.06-14.23 138.37-13.92 134.66-13.92L134.66-13.92Q132.12-13.92 130.61-15.36 129.09-16.8 128.41-19.14L128.41-19.14Q128.26-19.68 128.14-20.43 128.02-21.19 127.95-22 127.87-22.8 127.82-23.58 127.78-24.37 127.73-24.9L127.73-24.9Q127.48-28.13 127.36-31.25 127.24-34.38 127.14-37.6L127.14-37.6Q129.48-37.35 131.85-37.16 134.22-36.96 136.56-36.82L136.56-36.82Q136.56-34.52 136.69-31.96 136.81-29.39 137.3-27.2L137.3-27.2Q137.54-26.03 138.22-25.17 138.91-24.32 139.86-23.75 140.81-23.19 141.91-22.92 143.01-22.66 144.13-22.66L144.13-22.66Q145.45-22.66 146.77-22.92 148.09-23.19 149.31-23.58L149.31-23.58Q149.11-27.25 148.99-30.81 148.87-34.38 148.53-37.99L148.53-37.99Q149.99-38.04 151.46-38.11 152.92-38.18 154.39-38.18L154.39-38.18Q156.68-38.18 159.03-37.74L159.03-37.74Q159.03-35.64 159.1-33.54 159.17-31.45 159.27-29.35L159.27-29.35Q159.37-28.37 159.44-27.37 159.51-26.37 159.56-25.39L159.56-25.39Q159.76-22.07 160.2-18.77 160.64-15.48 160.64-12.16Z" opacity="1" transform="matrix(1,0,0,1,0,0)" fill="#2257bf" class="undefined-text-0" data-fill-palette-color="primary" id="text-0"></path></svg></g></svg></g></svg></g></svg></g><g transform="matrix(1,0,0,1,419.4053873903747,0)"><svg viewBox="0 0 108.19506089750809 139.82618043976464" height="139.82618043976464" width="108.19506089750809"><g><svg xmlns="http://www.w3.org/2000/svg" xmlns:xlink="http://www.w3.org/1999/xlink" version="1.1" x="0" y="0" viewBox="12.982999801635742 1 75.68599700927734 97.81300354003906" enable-background="new 0 0 100 100" xml:space="preserve" height="139.82618043976464" width="108.19506089750809" class="icon-icon-0" data-fill-palette-color="accent" id="icon-0"><g fill="#2257bf" data-fill-palette-color="accent"><polygon fill-rule="evenodd" clip-rule="evenodd" points="12.983,10.59 30.001,98.813 24.129,39.764 53.15,37.872 53.096,27.989    64.549,1 53.622,18.977  " fill="#2257bf" data-fill-palette-color="accent"></polygon><polygon fill-rule="evenodd" clip-rule="evenodd" points="59.389,54.548 64.549,1.007 55.809,40.723 36.197,41.768 37.767,62.23    30.001,98.813 42.058,58.914  " fill="#2257bf" data-fill-palette-color="accent"></polygon><polygon fill-rule="evenodd" clip-rule="evenodd" points="62.8,67.182 63.349,56.729 47.37,60.484 47.338,72.281 30.001,98.813    51.681,71.197  " fill="#2257bf" data-fill-palette-color="accent"></polygon><polygon fill-rule="evenodd" clip-rule="evenodd" points="65.711,62.394 80.552,57.663 82.061,45.131 66.162,47.226  " fill="#2257bf" data-fill-palette-color="accent"></polygon><polygon fill-rule="evenodd" clip-rule="evenodd" points="72.07,44.502 83.058,43.085 84.639,32.807 76.56,32.434 64.549,1    72.979,31.967  " fill="#2257bf" data-fill-palette-color="accent"></polygon><polygon fill-rule="evenodd" clip-rule="evenodd" points="87.413,31.294 88.669,21.788 79.125,19.094 64.549,1 79.032,23.437    78.61,30.437  " fill="#2257bf" data-fill-palette-color="accent"></polygon></g></svg></g></svg></g></svg></g></svg><rect width="395.52" height="104.82184210988258" fill="none" stroke="none" visibility="hidden"></rect></g><defs></defs></svg>